<mxfile host="Electron" agent="Mozilla/5.0 (Windows NT 10.0; Win64; x64) AppleWebKit/537.36 (KHTML, like Gecko) draw.io/24.7.5 Chrome/126.0.6478.183 Electron/31.3.0 Safari/537.36" version="24.7.5">
  <diagram name="ページ1" id="LE8fIzdrHe0wcv1LTvfw">
    <mxGraphModel dx="724" dy="428" grid="1" gridSize="10" guides="1" tooltips="1" connect="1" arrows="1" fold="1" page="1" pageScale="1" pageWidth="1600" pageHeight="1200" math="0" shadow="0">
      <root>
        <mxCell id="0" />
        <mxCell id="cFaB45KztUIKXS-_cTrr-4" value="背景" style="locked=1;" parent="0" visible="0" />
        <mxCell id="cFaB45KztUIKXS-_cTrr-5" value="" style="rounded=0;whiteSpace=wrap;html=1;strokeWidth=3;" parent="cFaB45KztUIKXS-_cTrr-4" vertex="1">
          <mxGeometry x="1" y="1" width="1595" height="1180" as="geometry" />
        </mxCell>
        <mxCell id="cFaB45KztUIKXS-_cTrr-6" value="" style="rounded=0;whiteSpace=wrap;html=1;fillColor=#B3B3B3;fontColor=#333333;strokeColor=#666666;" parent="cFaB45KztUIKXS-_cTrr-4" vertex="1">
          <mxGeometry width="1595" height="60" as="geometry" />
        </mxCell>
        <mxCell id="cFaB45KztUIKXS-_cTrr-7" value="&lt;font style=&quot;font-size: 48px;&quot;&gt;×&lt;/font&gt;" style="rounded=0;whiteSpace=wrap;html=1;" parent="cFaB45KztUIKXS-_cTrr-4" vertex="1">
          <mxGeometry x="1550" y="10" width="40" height="40" as="geometry" />
        </mxCell>
        <mxCell id="cFaB45KztUIKXS-_cTrr-8" value="" style="rounded=0;whiteSpace=wrap;html=1;" parent="cFaB45KztUIKXS-_cTrr-4" vertex="1">
          <mxGeometry x="830" y="670" width="120" height="60" as="geometry" />
        </mxCell>
        <mxCell id="cFaB45KztUIKXS-_cTrr-9" value="ウインドウ" style="" parent="0" />
        <mxCell id="cFaB45KztUIKXS-_cTrr-10" value="" style="rounded=0;whiteSpace=wrap;html=1;strokeWidth=3;" parent="cFaB45KztUIKXS-_cTrr-9" vertex="1">
          <mxGeometry x="15" y="10" width="1584" height="3140" as="geometry" />
        </mxCell>
        <mxCell id="cFaB45KztUIKXS-_cTrr-11" value="" style="rounded=0;whiteSpace=wrap;html=1;fillColor=#B3B3B3;fontColor=#333333;strokeColor=#666666;" parent="cFaB45KztUIKXS-_cTrr-9" vertex="1">
          <mxGeometry x="16" y="11" width="1584" height="60" as="geometry" />
        </mxCell>
        <mxCell id="cFaB45KztUIKXS-_cTrr-12" value="&lt;font style=&quot;font-size: 48px;&quot;&gt;×&lt;/font&gt;" style="rounded=0;whiteSpace=wrap;html=1;" parent="cFaB45KztUIKXS-_cTrr-9" vertex="1">
          <mxGeometry x="1554" y="17" width="40" height="40" as="geometry" />
        </mxCell>
        <mxCell id="cFaB45KztUIKXS-_cTrr-14" value="名称未設定レイヤ" style="" parent="0" />
        <mxCell id="HvR4dSRWBfD3urc1JDpB-8" value="&lt;font style=&quot;font-size: 30px;&quot;&gt;既存政治団体をこのソフトウェアでの管理を開始する&lt;/font&gt;" style="text;html=1;strokeColor=none;fillColor=none;align=left;verticalAlign=middle;whiteSpace=wrap;rounded=0;fontStyle=0" parent="cFaB45KztUIKXS-_cTrr-14" vertex="1">
          <mxGeometry x="54" y="105" width="1446" height="50" as="geometry" />
        </mxCell>
        <mxCell id="HvR4dSRWBfD3urc1JDpB-15" value="&lt;span style=&quot;font-size: 30px;&quot;&gt;更新&lt;/span&gt;" style="rounded=1;whiteSpace=wrap;html=1;" parent="cFaB45KztUIKXS-_cTrr-14" vertex="1">
          <mxGeometry x="1344" y="3010" width="210" height="60" as="geometry" />
        </mxCell>
        <mxCell id="HvR4dSRWBfD3urc1JDpB-16" value="&lt;span style=&quot;font-size: 30px;&quot;&gt;キャンセル&lt;/span&gt;" style="rounded=1;whiteSpace=wrap;html=1;" parent="cFaB45KztUIKXS-_cTrr-14" vertex="1">
          <mxGeometry x="1094" y="3010" width="210" height="60" as="geometry" />
        </mxCell>
        <mxCell id="8Hxk6lD6Y1Y_H0gw2qUc-4" value="&lt;span style=&quot;font-size: 30px;&quot;&gt;ユーザ名&lt;/span&gt;" style="rounded=0;whiteSpace=wrap;html=1;align=right;dashed=1;dashPattern=8 8;verticalAlign=bottom;" parent="cFaB45KztUIKXS-_cTrr-14" vertex="1">
          <mxGeometry x="340" y="460" width="224" height="46" as="geometry" />
        </mxCell>
        <mxCell id="8Hxk6lD6Y1Y_H0gw2qUc-5" value="&lt;span style=&quot;font-size: 30px;&quot;&gt;1234&lt;/span&gt;" style="rounded=0;whiteSpace=wrap;html=1;align=right;fillColor=#CCCCCC;" parent="cFaB45KztUIKXS-_cTrr-14" vertex="1">
          <mxGeometry x="584" y="458" width="156" height="48" as="geometry" />
        </mxCell>
        <mxCell id="8Hxk6lD6Y1Y_H0gw2qUc-8" value="&lt;span style=&quot;font-size: 30px;&quot;&gt;代表者名&lt;/span&gt;" style="rounded=0;whiteSpace=wrap;html=1;align=right;dashed=1;dashPattern=8 8;verticalAlign=bottom;" parent="cFaB45KztUIKXS-_cTrr-14" vertex="1">
          <mxGeometry x="254" y="528" width="310" height="46" as="geometry" />
        </mxCell>
        <mxCell id="8Hxk6lD6Y1Y_H0gw2qUc-9" value="&lt;font style=&quot;font-size: 30px;&quot;&gt;せいじだんたい&lt;/font&gt;" style="rounded=0;whiteSpace=wrap;html=1;align=left;fillColor=#CCCCCC;" parent="cFaB45KztUIKXS-_cTrr-14" vertex="1">
          <mxGeometry x="584" y="526" width="266" height="48" as="geometry" />
        </mxCell>
        <mxCell id="8Hxk6lD6Y1Y_H0gw2qUc-12" value="&lt;span style=&quot;font-size: 30px;&quot;&gt;電話番号&lt;/span&gt;" style="rounded=0;whiteSpace=wrap;html=1;align=right;dashed=1;dashPattern=8 8;verticalAlign=bottom;" parent="cFaB45KztUIKXS-_cTrr-14" vertex="1">
          <mxGeometry x="254" y="665" width="310" height="46" as="geometry" />
        </mxCell>
        <mxCell id="8Hxk6lD6Y1Y_H0gw2qUc-13" value="&lt;font style=&quot;font-size: 30px;&quot;&gt;090&lt;/font&gt;" style="rounded=0;whiteSpace=wrap;html=1;align=right;fillColor=#CCCCCC;" parent="cFaB45KztUIKXS-_cTrr-14" vertex="1">
          <mxGeometry x="584" y="664" width="106" height="48" as="geometry" />
        </mxCell>
        <mxCell id="8Hxk6lD6Y1Y_H0gw2qUc-14" value="&lt;span style=&quot;font-size: 30px;&quot;&gt;郵便番号&lt;/span&gt;" style="rounded=0;whiteSpace=wrap;html=1;align=right;dashed=1;dashPattern=8 8;verticalAlign=bottom;" parent="cFaB45KztUIKXS-_cTrr-14" vertex="1">
          <mxGeometry x="224" y="747" width="340" height="46" as="geometry" />
        </mxCell>
        <mxCell id="qKD88_HfL7puI4w-lyxV-7" value="&lt;font style=&quot;font-size: 30px;&quot;&gt;政治団体　太郎&lt;/font&gt;" style="rounded=0;whiteSpace=wrap;html=1;align=left;fillColor=#CCCCCC;" parent="cFaB45KztUIKXS-_cTrr-14" vertex="1">
          <mxGeometry x="774" y="458" width="450" height="48" as="geometry" />
        </mxCell>
        <mxCell id="qKD88_HfL7puI4w-lyxV-8" value="&lt;span style=&quot;font-size: 30px;&quot;&gt;検索&lt;/span&gt;" style="rounded=1;whiteSpace=wrap;html=1;fillColor=#FFFFFF;strokeWidth=3;" parent="cFaB45KztUIKXS-_cTrr-14" vertex="1">
          <mxGeometry x="1258" y="460" width="210" height="45" as="geometry" />
        </mxCell>
        <mxCell id="qKD88_HfL7puI4w-lyxV-9" value="&lt;span style=&quot;font-size: 30px;&quot;&gt;たろう&lt;/span&gt;" style="rounded=0;whiteSpace=wrap;html=1;align=left;fillColor=#CCCCCC;" parent="cFaB45KztUIKXS-_cTrr-14" vertex="1">
          <mxGeometry x="894" y="526" width="266" height="48" as="geometry" />
        </mxCell>
        <mxCell id="qKD88_HfL7puI4w-lyxV-10" value="&lt;font style=&quot;font-size: 30px;&quot;&gt;政治団体&lt;/font&gt;" style="rounded=0;whiteSpace=wrap;html=1;align=left;fillColor=#CCCCCC;" parent="cFaB45KztUIKXS-_cTrr-14" vertex="1">
          <mxGeometry x="584" y="596" width="266" height="48" as="geometry" />
        </mxCell>
        <mxCell id="qKD88_HfL7puI4w-lyxV-11" value="&lt;span style=&quot;font-size: 30px;&quot;&gt;太郎&lt;/span&gt;" style="rounded=0;whiteSpace=wrap;html=1;align=left;fillColor=#CCCCCC;" parent="cFaB45KztUIKXS-_cTrr-14" vertex="1">
          <mxGeometry x="894" y="596" width="266" height="48" as="geometry" />
        </mxCell>
        <mxCell id="qKD88_HfL7puI4w-lyxV-12" value="&lt;span style=&quot;font-size: 30px;&quot;&gt;0090&lt;/span&gt;" style="rounded=0;whiteSpace=wrap;html=1;align=right;fillColor=#CCCCCC;" parent="cFaB45KztUIKXS-_cTrr-14" vertex="1">
          <mxGeometry x="774" y="664" width="106" height="48" as="geometry" />
        </mxCell>
        <mxCell id="qKD88_HfL7puI4w-lyxV-13" value="&lt;font style=&quot;font-size: 30px;&quot;&gt;xxxx&lt;/font&gt;" style="rounded=0;whiteSpace=wrap;html=1;align=right;fillColor=#CCCCCC;" parent="cFaB45KztUIKXS-_cTrr-14" vertex="1">
          <mxGeometry x="994" y="664" width="106" height="48" as="geometry" />
        </mxCell>
        <mxCell id="qKD88_HfL7puI4w-lyxV-14" value="&lt;span style=&quot;font-size: 30px;&quot;&gt;－&lt;/span&gt;" style="rounded=0;whiteSpace=wrap;html=1;align=left;dashed=1;dashPattern=8 8;verticalAlign=bottom;" parent="cFaB45KztUIKXS-_cTrr-14" vertex="1">
          <mxGeometry x="703" y="666" width="66" height="46" as="geometry" />
        </mxCell>
        <mxCell id="qKD88_HfL7puI4w-lyxV-16" value="&lt;span style=&quot;font-size: 30px;&quot;&gt;－&lt;/span&gt;" style="rounded=0;whiteSpace=wrap;html=1;align=left;dashed=1;dashPattern=8 8;verticalAlign=bottom;" parent="cFaB45KztUIKXS-_cTrr-14" vertex="1">
          <mxGeometry x="903" y="666" width="66" height="46" as="geometry" />
        </mxCell>
        <mxCell id="qKD88_HfL7puI4w-lyxV-17" value="&lt;font style=&quot;font-size: 30px;&quot;&gt;123&lt;/font&gt;" style="rounded=0;whiteSpace=wrap;html=1;align=right;fillColor=#CCCCCC;" parent="cFaB45KztUIKXS-_cTrr-14" vertex="1">
          <mxGeometry x="584" y="744" width="106" height="48" as="geometry" />
        </mxCell>
        <mxCell id="qKD88_HfL7puI4w-lyxV-18" value="&lt;font style=&quot;font-size: 30px;&quot;&gt;4567&lt;/font&gt;" style="rounded=0;whiteSpace=wrap;html=1;align=right;fillColor=#CCCCCC;" parent="cFaB45KztUIKXS-_cTrr-14" vertex="1">
          <mxGeometry x="774" y="744" width="106" height="48" as="geometry" />
        </mxCell>
        <mxCell id="qKD88_HfL7puI4w-lyxV-19" value="&lt;span style=&quot;font-size: 30px;&quot;&gt;－&lt;/span&gt;" style="rounded=0;whiteSpace=wrap;html=1;align=left;dashed=1;dashPattern=8 8;verticalAlign=bottom;" parent="cFaB45KztUIKXS-_cTrr-14" vertex="1">
          <mxGeometry x="703" y="746" width="66" height="46" as="geometry" />
        </mxCell>
        <mxCell id="qKD88_HfL7puI4w-lyxV-20" value="&lt;span style=&quot;font-size: 30px;&quot;&gt;住所&lt;/span&gt;" style="rounded=0;whiteSpace=wrap;html=1;align=right;dashed=1;dashPattern=8 8;verticalAlign=bottom;" parent="cFaB45KztUIKXS-_cTrr-14" vertex="1">
          <mxGeometry x="254" y="818" width="310" height="46" as="geometry" />
        </mxCell>
        <mxCell id="qKD88_HfL7puI4w-lyxV-21" value="&lt;font style=&quot;font-size: 30px;&quot;&gt;宮崎県架空市実在町&lt;/font&gt;" style="rounded=0;whiteSpace=wrap;html=1;align=left;fillColor=#CCCCCC;verticalAlign=top;" parent="cFaB45KztUIKXS-_cTrr-14" vertex="1">
          <mxGeometry x="583" y="818" width="957" height="84" as="geometry" />
        </mxCell>
        <mxCell id="qKD88_HfL7puI4w-lyxV-22" value="&lt;font style=&quot;font-size: 30px;&quot;&gt;1967番地&lt;/font&gt;" style="rounded=0;whiteSpace=wrap;html=1;align=left;fillColor=#CCCCCC;verticalAlign=top;" parent="cFaB45KztUIKXS-_cTrr-14" vertex="1">
          <mxGeometry x="584" y="936" width="956" height="84" as="geometry" />
        </mxCell>
        <mxCell id="qKD88_HfL7puI4w-lyxV-23" value="&lt;font style=&quot;font-size: 30px;&quot;&gt;八角形ビル&lt;/font&gt;" style="rounded=0;whiteSpace=wrap;html=1;align=left;fillColor=#CCCCCC;verticalAlign=top;" parent="cFaB45KztUIKXS-_cTrr-14" vertex="1">
          <mxGeometry x="584" y="1056" width="956" height="84" as="geometry" />
        </mxCell>
        <mxCell id="qKD88_HfL7puI4w-lyxV-24" value="&lt;span style=&quot;font-size: 30px;&quot;&gt;生年月日&lt;/span&gt;" style="rounded=0;whiteSpace=wrap;html=1;align=right;dashed=1;dashPattern=8 8;verticalAlign=bottom;" parent="cFaB45KztUIKXS-_cTrr-14" vertex="1">
          <mxGeometry x="254" y="1168" width="310" height="46" as="geometry" />
        </mxCell>
        <mxCell id="qKD88_HfL7puI4w-lyxV-25" value="&lt;font style=&quot;font-size: 30px;&quot;&gt;1986/03/21&lt;/font&gt;" style="rounded=0;whiteSpace=wrap;html=1;align=left;fillColor=#CCCCCC;" parent="cFaB45KztUIKXS-_cTrr-14" vertex="1">
          <mxGeometry x="584" y="1166" width="450" height="48" as="geometry" />
        </mxCell>
        <mxCell id="JyLa_yg_n3dEuVPhsZc3-0" value="&lt;span style=&quot;font-size: 30px;&quot;&gt;政治団体名&lt;/span&gt;" style="rounded=0;whiteSpace=wrap;html=1;align=right;dashed=1;dashPattern=8 8;verticalAlign=bottom;" parent="cFaB45KztUIKXS-_cTrr-14" vertex="1">
          <mxGeometry x="84" y="250" width="310" height="46" as="geometry" />
        </mxCell>
        <mxCell id="JyLa_yg_n3dEuVPhsZc3-1" value="&lt;span style=&quot;font-size: 30px;&quot;&gt;1234&lt;/span&gt;" style="rounded=0;whiteSpace=wrap;html=1;align=right;fillColor=#CCCCCC;" parent="cFaB45KztUIKXS-_cTrr-14" vertex="1">
          <mxGeometry x="414" y="248" width="156" height="48" as="geometry" />
        </mxCell>
        <mxCell id="JyLa_yg_n3dEuVPhsZc3-2" value="&lt;font style=&quot;font-size: 30px;&quot;&gt;サンプル政治団体&lt;/font&gt;" style="rounded=0;whiteSpace=wrap;html=1;align=left;fillColor=#CCCCCC;" parent="cFaB45KztUIKXS-_cTrr-14" vertex="1">
          <mxGeometry x="604" y="248" width="450" height="48" as="geometry" />
        </mxCell>
        <mxCell id="JyLa_yg_n3dEuVPhsZc3-3" value="&lt;span style=&quot;font-size: 30px;&quot;&gt;検索&lt;/span&gt;" style="rounded=1;whiteSpace=wrap;html=1;fillColor=#FFFFFF;strokeWidth=3;" parent="cFaB45KztUIKXS-_cTrr-14" vertex="1">
          <mxGeometry x="1088" y="250" width="210" height="45" as="geometry" />
        </mxCell>
        <mxCell id="JyLa_yg_n3dEuVPhsZc3-4" value="&lt;span style=&quot;font-size: 30px;&quot;&gt;まだ選挙管理委員会に設立の申請をしていない場合は&lt;u&gt;政治団体設立届を提出&lt;/u&gt;してください&lt;/span&gt;" style="rounded=0;whiteSpace=wrap;html=1;align=left;dashed=1;dashPattern=8 8;verticalAlign=bottom;" parent="cFaB45KztUIKXS-_cTrr-14" vertex="1">
          <mxGeometry x="64" y="170" width="1366" height="46" as="geometry" />
        </mxCell>
        <mxCell id="JyLa_yg_n3dEuVPhsZc3-5" value="&lt;span style=&quot;font-size: 30px;&quot;&gt;代表者&lt;/span&gt;" style="rounded=0;whiteSpace=wrap;html=1;align=right;dashed=1;dashPattern=8 8;verticalAlign=bottom;" parent="cFaB45KztUIKXS-_cTrr-14" vertex="1">
          <mxGeometry x="84" y="460" width="310" height="46" as="geometry" />
        </mxCell>
        <mxCell id="JyLa_yg_n3dEuVPhsZc3-6" value="&lt;span style=&quot;font-size: 30px;&quot;&gt;すでに選挙管理員会に１回以上収支報告書を提出してるが、&lt;/span&gt;&lt;div&gt;&lt;span style=&quot;font-size: 30px;&quot;&gt;政治団体を探せない場合は&lt;u&gt;既存団体登録を依頼&lt;/u&gt;してください&lt;/span&gt;&lt;/div&gt;" style="rounded=0;whiteSpace=wrap;html=1;align=left;dashed=1;dashPattern=8 8;verticalAlign=bottom;" parent="cFaB45KztUIKXS-_cTrr-14" vertex="1">
          <mxGeometry x="64" y="340" width="1236" height="80" as="geometry" />
        </mxCell>
        <mxCell id="JyLa_yg_n3dEuVPhsZc3-7" value="&lt;span style=&quot;font-size: 30px;&quot;&gt;ユーザ名&lt;/span&gt;" style="rounded=0;whiteSpace=wrap;html=1;align=right;dashed=1;dashPattern=8 8;verticalAlign=bottom;" parent="cFaB45KztUIKXS-_cTrr-14" vertex="1">
          <mxGeometry x="340" y="1310" width="224" height="46" as="geometry" />
        </mxCell>
        <mxCell id="JyLa_yg_n3dEuVPhsZc3-8" value="&lt;span style=&quot;font-size: 30px;&quot;&gt;1234&lt;/span&gt;" style="rounded=0;whiteSpace=wrap;html=1;align=right;fillColor=#CCCCCC;" parent="cFaB45KztUIKXS-_cTrr-14" vertex="1">
          <mxGeometry x="584" y="1308" width="156" height="48" as="geometry" />
        </mxCell>
        <mxCell id="JyLa_yg_n3dEuVPhsZc3-9" value="&lt;span style=&quot;font-size: 30px;&quot;&gt;代表者名&lt;/span&gt;" style="rounded=0;whiteSpace=wrap;html=1;align=right;dashed=1;dashPattern=8 8;verticalAlign=bottom;" parent="cFaB45KztUIKXS-_cTrr-14" vertex="1">
          <mxGeometry x="254" y="1378" width="310" height="46" as="geometry" />
        </mxCell>
        <mxCell id="JyLa_yg_n3dEuVPhsZc3-10" value="&lt;font style=&quot;font-size: 30px;&quot;&gt;せいじだんたい&lt;/font&gt;" style="rounded=0;whiteSpace=wrap;html=1;align=left;fillColor=#CCCCCC;" parent="cFaB45KztUIKXS-_cTrr-14" vertex="1">
          <mxGeometry x="584" y="1376" width="266" height="48" as="geometry" />
        </mxCell>
        <mxCell id="JyLa_yg_n3dEuVPhsZc3-11" value="&lt;span style=&quot;font-size: 30px;&quot;&gt;電話番号&lt;/span&gt;" style="rounded=0;whiteSpace=wrap;html=1;align=right;dashed=1;dashPattern=8 8;verticalAlign=bottom;" parent="cFaB45KztUIKXS-_cTrr-14" vertex="1">
          <mxGeometry x="254" y="1515" width="310" height="46" as="geometry" />
        </mxCell>
        <mxCell id="JyLa_yg_n3dEuVPhsZc3-12" value="&lt;font style=&quot;font-size: 30px;&quot;&gt;090&lt;/font&gt;" style="rounded=0;whiteSpace=wrap;html=1;align=right;fillColor=#CCCCCC;" parent="cFaB45KztUIKXS-_cTrr-14" vertex="1">
          <mxGeometry x="584" y="1514" width="106" height="48" as="geometry" />
        </mxCell>
        <mxCell id="JyLa_yg_n3dEuVPhsZc3-13" value="&lt;span style=&quot;font-size: 30px;&quot;&gt;郵便番号&lt;/span&gt;" style="rounded=0;whiteSpace=wrap;html=1;align=right;dashed=1;dashPattern=8 8;verticalAlign=bottom;" parent="cFaB45KztUIKXS-_cTrr-14" vertex="1">
          <mxGeometry x="224" y="1597" width="340" height="46" as="geometry" />
        </mxCell>
        <mxCell id="JyLa_yg_n3dEuVPhsZc3-14" value="&lt;font style=&quot;font-size: 30px;&quot;&gt;政治団体　太郎&lt;/font&gt;" style="rounded=0;whiteSpace=wrap;html=1;align=left;fillColor=#CCCCCC;" parent="cFaB45KztUIKXS-_cTrr-14" vertex="1">
          <mxGeometry x="774" y="1308" width="450" height="48" as="geometry" />
        </mxCell>
        <mxCell id="JyLa_yg_n3dEuVPhsZc3-15" value="&lt;span style=&quot;font-size: 30px;&quot;&gt;検索&lt;/span&gt;" style="rounded=1;whiteSpace=wrap;html=1;fillColor=#FFFFFF;strokeWidth=3;" parent="cFaB45KztUIKXS-_cTrr-14" vertex="1">
          <mxGeometry x="1258" y="1310" width="210" height="45" as="geometry" />
        </mxCell>
        <mxCell id="JyLa_yg_n3dEuVPhsZc3-16" value="&lt;span style=&quot;font-size: 30px;&quot;&gt;たろう&lt;/span&gt;" style="rounded=0;whiteSpace=wrap;html=1;align=left;fillColor=#CCCCCC;" parent="cFaB45KztUIKXS-_cTrr-14" vertex="1">
          <mxGeometry x="894" y="1376" width="266" height="48" as="geometry" />
        </mxCell>
        <mxCell id="JyLa_yg_n3dEuVPhsZc3-17" value="&lt;font style=&quot;font-size: 30px;&quot;&gt;政治団体&lt;/font&gt;" style="rounded=0;whiteSpace=wrap;html=1;align=left;fillColor=#CCCCCC;" parent="cFaB45KztUIKXS-_cTrr-14" vertex="1">
          <mxGeometry x="584" y="1446" width="266" height="48" as="geometry" />
        </mxCell>
        <mxCell id="JyLa_yg_n3dEuVPhsZc3-18" value="&lt;span style=&quot;font-size: 30px;&quot;&gt;太郎&lt;/span&gt;" style="rounded=0;whiteSpace=wrap;html=1;align=left;fillColor=#CCCCCC;" parent="cFaB45KztUIKXS-_cTrr-14" vertex="1">
          <mxGeometry x="894" y="1446" width="266" height="48" as="geometry" />
        </mxCell>
        <mxCell id="JyLa_yg_n3dEuVPhsZc3-19" value="&lt;span style=&quot;font-size: 30px;&quot;&gt;0090&lt;/span&gt;" style="rounded=0;whiteSpace=wrap;html=1;align=right;fillColor=#CCCCCC;" parent="cFaB45KztUIKXS-_cTrr-14" vertex="1">
          <mxGeometry x="774" y="1514" width="106" height="48" as="geometry" />
        </mxCell>
        <mxCell id="JyLa_yg_n3dEuVPhsZc3-20" value="&lt;font style=&quot;font-size: 30px;&quot;&gt;xxxx&lt;/font&gt;" style="rounded=0;whiteSpace=wrap;html=1;align=right;fillColor=#CCCCCC;" parent="cFaB45KztUIKXS-_cTrr-14" vertex="1">
          <mxGeometry x="994" y="1514" width="106" height="48" as="geometry" />
        </mxCell>
        <mxCell id="JyLa_yg_n3dEuVPhsZc3-21" value="&lt;span style=&quot;font-size: 30px;&quot;&gt;－&lt;/span&gt;" style="rounded=0;whiteSpace=wrap;html=1;align=left;dashed=1;dashPattern=8 8;verticalAlign=bottom;" parent="cFaB45KztUIKXS-_cTrr-14" vertex="1">
          <mxGeometry x="703" y="1516" width="66" height="46" as="geometry" />
        </mxCell>
        <mxCell id="JyLa_yg_n3dEuVPhsZc3-22" value="&lt;span style=&quot;font-size: 30px;&quot;&gt;－&lt;/span&gt;" style="rounded=0;whiteSpace=wrap;html=1;align=left;dashed=1;dashPattern=8 8;verticalAlign=bottom;" parent="cFaB45KztUIKXS-_cTrr-14" vertex="1">
          <mxGeometry x="903" y="1516" width="66" height="46" as="geometry" />
        </mxCell>
        <mxCell id="JyLa_yg_n3dEuVPhsZc3-23" value="&lt;font style=&quot;font-size: 30px;&quot;&gt;123&lt;/font&gt;" style="rounded=0;whiteSpace=wrap;html=1;align=right;fillColor=#CCCCCC;" parent="cFaB45KztUIKXS-_cTrr-14" vertex="1">
          <mxGeometry x="584" y="1594" width="106" height="48" as="geometry" />
        </mxCell>
        <mxCell id="JyLa_yg_n3dEuVPhsZc3-24" value="&lt;font style=&quot;font-size: 30px;&quot;&gt;4567&lt;/font&gt;" style="rounded=0;whiteSpace=wrap;html=1;align=right;fillColor=#CCCCCC;" parent="cFaB45KztUIKXS-_cTrr-14" vertex="1">
          <mxGeometry x="774" y="1594" width="106" height="48" as="geometry" />
        </mxCell>
        <mxCell id="JyLa_yg_n3dEuVPhsZc3-25" value="&lt;span style=&quot;font-size: 30px;&quot;&gt;－&lt;/span&gt;" style="rounded=0;whiteSpace=wrap;html=1;align=left;dashed=1;dashPattern=8 8;verticalAlign=bottom;" parent="cFaB45KztUIKXS-_cTrr-14" vertex="1">
          <mxGeometry x="703" y="1596" width="66" height="46" as="geometry" />
        </mxCell>
        <mxCell id="JyLa_yg_n3dEuVPhsZc3-26" value="&lt;span style=&quot;font-size: 30px;&quot;&gt;住所&lt;/span&gt;" style="rounded=0;whiteSpace=wrap;html=1;align=right;dashed=1;dashPattern=8 8;verticalAlign=bottom;" parent="cFaB45KztUIKXS-_cTrr-14" vertex="1">
          <mxGeometry x="254" y="1668" width="310" height="46" as="geometry" />
        </mxCell>
        <mxCell id="JyLa_yg_n3dEuVPhsZc3-27" value="&lt;font style=&quot;font-size: 30px;&quot;&gt;宮崎県架空市実在町&lt;/font&gt;" style="rounded=0;whiteSpace=wrap;html=1;align=left;fillColor=#CCCCCC;verticalAlign=top;" parent="cFaB45KztUIKXS-_cTrr-14" vertex="1">
          <mxGeometry x="583" y="1668" width="957" height="84" as="geometry" />
        </mxCell>
        <mxCell id="JyLa_yg_n3dEuVPhsZc3-28" value="&lt;font style=&quot;font-size: 30px;&quot;&gt;1967番地&lt;/font&gt;" style="rounded=0;whiteSpace=wrap;html=1;align=left;fillColor=#CCCCCC;verticalAlign=top;" parent="cFaB45KztUIKXS-_cTrr-14" vertex="1">
          <mxGeometry x="584" y="1786" width="956" height="84" as="geometry" />
        </mxCell>
        <mxCell id="JyLa_yg_n3dEuVPhsZc3-29" value="&lt;font style=&quot;font-size: 30px;&quot;&gt;八角形ビル&lt;/font&gt;" style="rounded=0;whiteSpace=wrap;html=1;align=left;fillColor=#CCCCCC;verticalAlign=top;" parent="cFaB45KztUIKXS-_cTrr-14" vertex="1">
          <mxGeometry x="584" y="1906" width="956" height="84" as="geometry" />
        </mxCell>
        <mxCell id="JyLa_yg_n3dEuVPhsZc3-30" value="&lt;span style=&quot;font-size: 30px;&quot;&gt;生年月日&lt;/span&gt;" style="rounded=0;whiteSpace=wrap;html=1;align=right;dashed=1;dashPattern=8 8;verticalAlign=bottom;" parent="cFaB45KztUIKXS-_cTrr-14" vertex="1">
          <mxGeometry x="254" y="2018" width="310" height="46" as="geometry" />
        </mxCell>
        <mxCell id="JyLa_yg_n3dEuVPhsZc3-31" value="&lt;font style=&quot;font-size: 30px;&quot;&gt;1986/03/21&lt;/font&gt;" style="rounded=0;whiteSpace=wrap;html=1;align=left;fillColor=#CCCCCC;" parent="cFaB45KztUIKXS-_cTrr-14" vertex="1">
          <mxGeometry x="584" y="2016" width="450" height="48" as="geometry" />
        </mxCell>
        <mxCell id="JyLa_yg_n3dEuVPhsZc3-32" value="&lt;span style=&quot;font-size: 30px;&quot;&gt;会計責任者&lt;/span&gt;" style="rounded=0;whiteSpace=wrap;html=1;align=right;dashed=1;dashPattern=8 8;verticalAlign=bottom;" parent="cFaB45KztUIKXS-_cTrr-14" vertex="1">
          <mxGeometry x="84" y="1310" width="310" height="46" as="geometry" />
        </mxCell>
        <mxCell id="JyLa_yg_n3dEuVPhsZc3-33" value="&lt;span style=&quot;font-size: 30px;&quot;&gt;ユーザ名&lt;/span&gt;" style="rounded=0;whiteSpace=wrap;html=1;align=right;dashed=1;dashPattern=8 8;verticalAlign=bottom;" parent="cFaB45KztUIKXS-_cTrr-14" vertex="1">
          <mxGeometry x="340" y="2130" width="224" height="46" as="geometry" />
        </mxCell>
        <mxCell id="JyLa_yg_n3dEuVPhsZc3-34" value="&lt;span style=&quot;font-size: 30px;&quot;&gt;1234&lt;/span&gt;" style="rounded=0;whiteSpace=wrap;html=1;align=right;fillColor=#CCCCCC;" parent="cFaB45KztUIKXS-_cTrr-14" vertex="1">
          <mxGeometry x="584" y="2128" width="156" height="48" as="geometry" />
        </mxCell>
        <mxCell id="JyLa_yg_n3dEuVPhsZc3-35" value="&lt;span style=&quot;font-size: 30px;&quot;&gt;代表者名&lt;/span&gt;" style="rounded=0;whiteSpace=wrap;html=1;align=right;dashed=1;dashPattern=8 8;verticalAlign=bottom;" parent="cFaB45KztUIKXS-_cTrr-14" vertex="1">
          <mxGeometry x="254" y="2198" width="310" height="46" as="geometry" />
        </mxCell>
        <mxCell id="JyLa_yg_n3dEuVPhsZc3-36" value="&lt;font style=&quot;font-size: 30px;&quot;&gt;せいじだんたい&lt;/font&gt;" style="rounded=0;whiteSpace=wrap;html=1;align=left;fillColor=#CCCCCC;" parent="cFaB45KztUIKXS-_cTrr-14" vertex="1">
          <mxGeometry x="584" y="2196" width="266" height="48" as="geometry" />
        </mxCell>
        <mxCell id="JyLa_yg_n3dEuVPhsZc3-37" value="&lt;span style=&quot;font-size: 30px;&quot;&gt;電話番号&lt;/span&gt;" style="rounded=0;whiteSpace=wrap;html=1;align=right;dashed=1;dashPattern=8 8;verticalAlign=bottom;" parent="cFaB45KztUIKXS-_cTrr-14" vertex="1">
          <mxGeometry x="254" y="2335" width="310" height="46" as="geometry" />
        </mxCell>
        <mxCell id="JyLa_yg_n3dEuVPhsZc3-38" value="&lt;font style=&quot;font-size: 30px;&quot;&gt;090&lt;/font&gt;" style="rounded=0;whiteSpace=wrap;html=1;align=right;fillColor=#CCCCCC;" parent="cFaB45KztUIKXS-_cTrr-14" vertex="1">
          <mxGeometry x="584" y="2334" width="106" height="48" as="geometry" />
        </mxCell>
        <mxCell id="JyLa_yg_n3dEuVPhsZc3-39" value="&lt;span style=&quot;font-size: 30px;&quot;&gt;郵便番号&lt;/span&gt;" style="rounded=0;whiteSpace=wrap;html=1;align=right;dashed=1;dashPattern=8 8;verticalAlign=bottom;" parent="cFaB45KztUIKXS-_cTrr-14" vertex="1">
          <mxGeometry x="224" y="2417" width="340" height="46" as="geometry" />
        </mxCell>
        <mxCell id="JyLa_yg_n3dEuVPhsZc3-40" value="&lt;font style=&quot;font-size: 30px;&quot;&gt;政治団体　太郎&lt;/font&gt;" style="rounded=0;whiteSpace=wrap;html=1;align=left;fillColor=#CCCCCC;" parent="cFaB45KztUIKXS-_cTrr-14" vertex="1">
          <mxGeometry x="774" y="2128" width="450" height="48" as="geometry" />
        </mxCell>
        <mxCell id="JyLa_yg_n3dEuVPhsZc3-41" value="&lt;span style=&quot;font-size: 30px;&quot;&gt;検索&lt;/span&gt;" style="rounded=1;whiteSpace=wrap;html=1;fillColor=#FFFFFF;strokeWidth=3;" parent="cFaB45KztUIKXS-_cTrr-14" vertex="1">
          <mxGeometry x="1258" y="2130" width="210" height="45" as="geometry" />
        </mxCell>
        <mxCell id="JyLa_yg_n3dEuVPhsZc3-42" value="&lt;span style=&quot;font-size: 30px;&quot;&gt;たろう&lt;/span&gt;" style="rounded=0;whiteSpace=wrap;html=1;align=left;fillColor=#CCCCCC;" parent="cFaB45KztUIKXS-_cTrr-14" vertex="1">
          <mxGeometry x="894" y="2196" width="266" height="48" as="geometry" />
        </mxCell>
        <mxCell id="JyLa_yg_n3dEuVPhsZc3-43" value="&lt;font style=&quot;font-size: 30px;&quot;&gt;政治団体&lt;/font&gt;" style="rounded=0;whiteSpace=wrap;html=1;align=left;fillColor=#CCCCCC;" parent="cFaB45KztUIKXS-_cTrr-14" vertex="1">
          <mxGeometry x="584" y="2266" width="266" height="48" as="geometry" />
        </mxCell>
        <mxCell id="JyLa_yg_n3dEuVPhsZc3-44" value="&lt;span style=&quot;font-size: 30px;&quot;&gt;太郎&lt;/span&gt;" style="rounded=0;whiteSpace=wrap;html=1;align=left;fillColor=#CCCCCC;" parent="cFaB45KztUIKXS-_cTrr-14" vertex="1">
          <mxGeometry x="894" y="2266" width="266" height="48" as="geometry" />
        </mxCell>
        <mxCell id="JyLa_yg_n3dEuVPhsZc3-45" value="&lt;span style=&quot;font-size: 30px;&quot;&gt;0090&lt;/span&gt;" style="rounded=0;whiteSpace=wrap;html=1;align=right;fillColor=#CCCCCC;" parent="cFaB45KztUIKXS-_cTrr-14" vertex="1">
          <mxGeometry x="774" y="2334" width="106" height="48" as="geometry" />
        </mxCell>
        <mxCell id="JyLa_yg_n3dEuVPhsZc3-46" value="&lt;font style=&quot;font-size: 30px;&quot;&gt;xxxx&lt;/font&gt;" style="rounded=0;whiteSpace=wrap;html=1;align=right;fillColor=#CCCCCC;" parent="cFaB45KztUIKXS-_cTrr-14" vertex="1">
          <mxGeometry x="994" y="2334" width="106" height="48" as="geometry" />
        </mxCell>
        <mxCell id="JyLa_yg_n3dEuVPhsZc3-47" value="&lt;span style=&quot;font-size: 30px;&quot;&gt;－&lt;/span&gt;" style="rounded=0;whiteSpace=wrap;html=1;align=left;dashed=1;dashPattern=8 8;verticalAlign=bottom;" parent="cFaB45KztUIKXS-_cTrr-14" vertex="1">
          <mxGeometry x="703" y="2336" width="66" height="46" as="geometry" />
        </mxCell>
        <mxCell id="JyLa_yg_n3dEuVPhsZc3-48" value="&lt;span style=&quot;font-size: 30px;&quot;&gt;－&lt;/span&gt;" style="rounded=0;whiteSpace=wrap;html=1;align=left;dashed=1;dashPattern=8 8;verticalAlign=bottom;" parent="cFaB45KztUIKXS-_cTrr-14" vertex="1">
          <mxGeometry x="903" y="2336" width="66" height="46" as="geometry" />
        </mxCell>
        <mxCell id="JyLa_yg_n3dEuVPhsZc3-49" value="&lt;font style=&quot;font-size: 30px;&quot;&gt;123&lt;/font&gt;" style="rounded=0;whiteSpace=wrap;html=1;align=right;fillColor=#CCCCCC;" parent="cFaB45KztUIKXS-_cTrr-14" vertex="1">
          <mxGeometry x="584" y="2414" width="106" height="48" as="geometry" />
        </mxCell>
        <mxCell id="JyLa_yg_n3dEuVPhsZc3-50" value="&lt;font style=&quot;font-size: 30px;&quot;&gt;4567&lt;/font&gt;" style="rounded=0;whiteSpace=wrap;html=1;align=right;fillColor=#CCCCCC;" parent="cFaB45KztUIKXS-_cTrr-14" vertex="1">
          <mxGeometry x="774" y="2414" width="106" height="48" as="geometry" />
        </mxCell>
        <mxCell id="JyLa_yg_n3dEuVPhsZc3-51" value="&lt;span style=&quot;font-size: 30px;&quot;&gt;－&lt;/span&gt;" style="rounded=0;whiteSpace=wrap;html=1;align=left;dashed=1;dashPattern=8 8;verticalAlign=bottom;" parent="cFaB45KztUIKXS-_cTrr-14" vertex="1">
          <mxGeometry x="703" y="2416" width="66" height="46" as="geometry" />
        </mxCell>
        <mxCell id="JyLa_yg_n3dEuVPhsZc3-52" value="&lt;span style=&quot;font-size: 30px;&quot;&gt;住所&lt;/span&gt;" style="rounded=0;whiteSpace=wrap;html=1;align=right;dashed=1;dashPattern=8 8;verticalAlign=bottom;" parent="cFaB45KztUIKXS-_cTrr-14" vertex="1">
          <mxGeometry x="254" y="2488" width="310" height="46" as="geometry" />
        </mxCell>
        <mxCell id="JyLa_yg_n3dEuVPhsZc3-53" value="&lt;font style=&quot;font-size: 30px;&quot;&gt;宮崎県架空市実在町&lt;/font&gt;" style="rounded=0;whiteSpace=wrap;html=1;align=left;fillColor=#CCCCCC;verticalAlign=top;" parent="cFaB45KztUIKXS-_cTrr-14" vertex="1">
          <mxGeometry x="583" y="2488" width="957" height="84" as="geometry" />
        </mxCell>
        <mxCell id="JyLa_yg_n3dEuVPhsZc3-54" value="&lt;font style=&quot;font-size: 30px;&quot;&gt;1967番地&lt;/font&gt;" style="rounded=0;whiteSpace=wrap;html=1;align=left;fillColor=#CCCCCC;verticalAlign=top;" parent="cFaB45KztUIKXS-_cTrr-14" vertex="1">
          <mxGeometry x="584" y="2606" width="956" height="84" as="geometry" />
        </mxCell>
        <mxCell id="JyLa_yg_n3dEuVPhsZc3-55" value="&lt;font style=&quot;font-size: 30px;&quot;&gt;八角形ビル&lt;/font&gt;" style="rounded=0;whiteSpace=wrap;html=1;align=left;fillColor=#CCCCCC;verticalAlign=top;" parent="cFaB45KztUIKXS-_cTrr-14" vertex="1">
          <mxGeometry x="584" y="2726" width="956" height="84" as="geometry" />
        </mxCell>
        <mxCell id="JyLa_yg_n3dEuVPhsZc3-56" value="&lt;span style=&quot;font-size: 30px;&quot;&gt;生年月日&lt;/span&gt;" style="rounded=0;whiteSpace=wrap;html=1;align=right;dashed=1;dashPattern=8 8;verticalAlign=bottom;" parent="cFaB45KztUIKXS-_cTrr-14" vertex="1">
          <mxGeometry x="254" y="2838" width="310" height="46" as="geometry" />
        </mxCell>
        <mxCell id="JyLa_yg_n3dEuVPhsZc3-57" value="&lt;font style=&quot;font-size: 30px;&quot;&gt;1986/03/21&lt;/font&gt;" style="rounded=0;whiteSpace=wrap;html=1;align=left;fillColor=#CCCCCC;" parent="cFaB45KztUIKXS-_cTrr-14" vertex="1">
          <mxGeometry x="584" y="2836" width="450" height="48" as="geometry" />
        </mxCell>
        <mxCell id="JyLa_yg_n3dEuVPhsZc3-58" value="&lt;span style=&quot;font-size: 30px;&quot;&gt;会計責任者職務代行者&lt;/span&gt;" style="rounded=0;whiteSpace=wrap;html=1;align=right;dashed=1;dashPattern=8 8;verticalAlign=bottom;" parent="cFaB45KztUIKXS-_cTrr-14" vertex="1">
          <mxGeometry x="84" y="2130" width="310" height="46" as="geometry" />
        </mxCell>
      </root>
    </mxGraphModel>
  </diagram>
</mxfile>
